Coordinates
version=1
nRows=21
nColumns=19
inDegrees=yes

Units are S.I. units (second, meters, Newtons, ...)
If the header above contains a line with 'inDegrees', this indicates whether rotational values are in degrees (yes) or radians (no).

endheader
time	pelvis_tilt	pelvis_list	pelvis_rotation	pelvis_tx	pelvis_ty	pelvis_tz	hip_flexion_r	hip_adduction_r	hip_rotation_r	knee_angle_r	knee_angle_r_beta	ankle_angle_r	hip_flexion_l	hip_adduction_l	hip_rotation_l	knee_angle_l	knee_angle_l_beta	ankle_angle_l
     13.00000000	    -10.81226697	      5.63973228	      3.63373540	      2.15182750	      0.95046494	      0.97935673	    -10.61437469	     -9.06483496	    -13.14449071	     34.09536677	      0.59507641	    -11.98989948	     30.48742518	      8.89633343	     -8.74104775	     13.83114905	      0.24139909	      9.73884888
     13.00666667	    -10.25555583	      6.27797352	      3.74629088	      2.15225683	      0.94693916	      0.97861913	    -10.66671595	    -10.12040363	    -13.20588754	     36.80758751	      0.64241359	    -11.55484572	     30.18511051	      9.44841358	     -9.72400109	     15.62783778	      0.27275722	      9.57597649
     13.01333333	    -10.07680773	      6.80144011	      3.75208889	      2.15246171	      0.94267106	      0.97804484	    -10.08593430	    -11.11650729	    -13.00704066	     39.77447611	      0.69419557	    -11.05316795	     30.43975685	      9.75321459	    -10.78856765	     17.94414325	      0.31318438	      9.40630459
     13.02000000	     -9.40307881	      7.46803189	      3.84746326	      2.15277006	      0.93867789	      0.97752951	    -10.08618113	    -12.21694019	    -13.07495948	     42.66334498	      0.74461584	    -10.60675596	     30.13986703	     10.19608077	    -11.62810235	     20.44169373	      0.35677486	      9.29440597
     13.02666667	     -8.64513010	      8.16710340	      3.99987350	      2.15301448	      0.93450779	      0.97703254	    -10.13005684	    -13.34332874	    -13.21409384	     45.60470111	      0.79595219	    -10.05202721	     29.78121004	     10.66787858	    -12.26313141	     23.16198087	      0.40425283	      9.33883184
     13.03333333	     -8.40704060	      8.64466636	      3.97050555	      2.15288009	      0.92966420	      0.97670868	     -9.28818123	    -14.30835626	    -12.88832993	     48.79717969	      0.85167145	     -9.45344021	     30.06934030	     10.81114042	    -12.88174959	     26.08538156	      0.45527579	      9.57257094
     13.04000000	     -7.53104320	      9.27569328	      4.13892737	      2.15281277	      0.92545207	      0.97627290	     -9.27975816	    -15.36599208	    -13.01080087	     51.78482891	      0.90381577	     -8.81188698	     29.55041258	     11.25001104	    -13.03992697	     28.88606908	      0.50415701	     10.09428542
     13.04666667	     -6.68170745	      9.84028349	      4.27405346	      2.15247212	      0.92130992	      0.97583337	     -9.11133619	    -16.35563676	    -13.00773336	     54.79237456	      0.95630734	     -8.09148435	     29.00873973	     11.66821091	    -12.95539620	     31.58874912	      0.55132768	     10.91704217
     13.05333333	     -6.02127063	     10.30605209	      4.38709528	      2.15190241	      0.91705551	      0.97532729	     -8.57992767	    -17.24597461	    -12.80872471	     57.83037169	      1.00933039	     -7.22146400	     28.65629875	     12.01103185	    -12.80559639	     34.27566912	      0.59822328	     11.97869474
     13.06000000	     -5.89605118	     10.54250285	      4.47396679	      2.15084879	      0.91244099	      0.97489840	     -7.17701651	    -17.86521188	    -12.17818757	     60.99966912	      1.06464507	     -6.25916861	     28.84653144	     12.16382473	    -12.53530494	     36.84613269	      0.64308633	     13.27591054
     13.06666667	     -5.40211350	     10.80906534	      4.60850384	      2.14971507	      0.90854047	      0.97436761	     -6.18836001	    -18.46723310	    -11.69452811	     63.96786927	      1.11644993	     -5.22496183	     28.46600836	     12.44563898	    -12.08031631	     39.11627046	      0.68270771	     14.78694109
     13.07333333	     -4.60937933	     11.06235216	      4.77957564	      2.14841530	      0.90531729	      0.97379057	     -5.51362845	    -19.00982616	    -11.31940409	     66.74841624	      1.16497963	     -4.13888613	     27.58949002	     12.78991360	    -11.47841573	     41.08061133	      0.71699193	     16.47750452
     13.08000000	     -4.59271005	     11.05204162	      4.74321671	      2.14673271	      0.90166689	      0.97339854	     -3.57879513	    -19.21340558	    -10.18897838	     69.64228367	      1.21548715	     -2.94399591	     27.49025820	     12.79631317	    -11.12883599	     42.87196927	      0.74825702	     18.09584078
     13.08666667	     -4.09042737	     11.05433715	      4.86472225	      2.14508305	      0.89898804	      0.97285741	     -2.31559283	    -19.36764276	     -9.45161417	     72.19170191	      1.25998289	     -1.76473105	     26.63084584	     12.93957680	    -10.49802951	     44.30317183	      0.77323622	     19.80549150
     13.09333333	     -4.29978371	     10.81981618	      4.68873293	      2.14316218	      0.89603958	      0.97264931	      0.13468559	    -19.19300093	     -7.99986311	     74.78283630	      1.30520672	     -0.64383213	     26.46111690	     12.70474600	    -10.27577489	     45.51561857	      0.79439741	     21.33842599
     13.10000000	     -4.34046161	     10.55832078	      4.66185781	      2.14132083	      0.89376713	      0.97231296	      2.28732647	    -18.93149066	     -6.84298773	     77.05849207	      1.34492440	      0.48678277	     25.90344565	     12.54116822	     -9.84521817	     46.41635401	      0.81011820	     22.78469972
     13.10666667	     -4.34929664	     10.27653553	      4.52639498	      2.13951672	      0.89205487	      0.97214369	      4.46424648	    -18.58201530	     -5.62641869	     79.10156494	      1.38058275	      1.59229437	     25.13563886	     12.31182938	     -9.53152525	     46.99343733	      0.82019021	     24.06377392
     13.11333333	     -4.34066773	      9.96692554	      4.34573231	      2.13787459	      0.89092730	      0.97206639	      6.61538066	    -18.14651171	     -4.44752514	     80.86066318	      1.41128481	      2.58879784	     24.18297110	     12.03809848	     -9.27922406	     47.28953646	      0.82535811	     25.16863127
     13.12000000	     -4.39010091	      9.61549149	      4.20417786	      2.13638214	      0.89031147	      0.97196332	      8.77669979	    -17.63811369	     -3.40226385	     82.32724746	      1.43688153	      3.54447124	     23.13792963	     11.74128862	     -8.99050232	     47.31879147	      0.82586871	     26.04677226
     13.12666667	     -4.46609167	      9.23424772	      4.08648430	      2.13496327	      0.89023475	      0.97184261	     10.91038142	    -17.09473744	     -2.50470022	     83.49403631	      1.45724584	      4.41485294	     22.00635676	     11.42888672	     -8.66670905	     47.12776715	      0.82253471	     26.68756204
     13.13333333	     -4.50889140	      8.83467252	      4.03877632	      2.13385407	      0.89078814	      0.97171633	     12.88408524	    -16.54711958	     -1.85349231	     84.32658752	      1.47177660	      5.26495449	     20.69268588	     11.10402144	     -8.29746810	     46.70343852	      0.81512877	     27.17286324
